<?xml version="1.0" encoding="UTF-8"?>
<svg xmlns="http://www.w3.org/2000/svg" version="1.1" viewBox="0 0 724.76 909.28">
  <defs>
    <style>
      .cls-1 {
        fill: #cc0000;
      }
    </style>
  </defs>
  <g>
    <g id="Elements_finaux">
      <path id="Picto_x5F_Quadri_x5F_Jaune" class="cls-1" d="M405.6,63.44c74.1,0,140.91,12.6,188.11,35.48,21.92,10.63,38.8,23.04,50.15,36.89,10.28,12.54,15.9,26.25,17.18,41.9,1.62,19.82-4.02,38.04-17.23,55.7-12.32,16.46-27.03,26.69-31.25,29.44l-.03.02-.03.02c-11.23,7.33-20.11,17.65-25.68,29.87-5.08,11.15-7.17,23.4-6.1,35.58l30.55,432.39c.36,5.12-3.18,9.66-8.24,10.55l-423.42,74.38c-.64.11-1.28.17-1.88.17-4.75,0-9.84-4.02-9.84-10.01l-.3-468.72v-1.15s-.04-1.15-.04-1.15c-.49-13.21-4.65-25.98-12.03-36.93-7.47-11.08-17.88-19.78-30.1-25.17h-.03s-.03-.03-.03-.03c-4.61-2.02-20.79-9.74-35.61-23.98-15.9-15.28-24.42-32.33-26.04-52.16-.94-11.44.54-22.04,4.51-32.39,4.09-10.66,10.97-21.28,20.44-31.56,12.8-13.89,30.1-27.01,51.41-39.01,21.98-12.37,47.67-23.22,76.36-32.25,57.1-17.97,124.28-27.87,189.16-27.87h0M405.59,0C205.88,0-11.59,83.97.48,231.7c6.81,83.34,80.91,120.94,99.36,129.05,2.55,1.12,4.22,3.61,4.32,6.39l.3,468.72c.03,41.22,33.65,73.41,73.28,73.41,4.23,0,8.53-.37,12.86-1.13l423.42-74.38c37.06-6.51,63.2-39.97,60.55-77.5l-30.61-433.23c-.35-2.76.88-5.49,3.21-7,16.87-10.98,83.92-60.11,77.11-143.48C714.59,54.04,565.81,0,405.59,0h0ZM283.87,465.58c-12.14-8.72-30.34-5.74-39.43,6.92-6.49,9.04-7.05,22.35,5.35,31.25,13.95,10.02,31.97,4.56,40.13-6.8,7.42-10.33,5.06-23.39-6.05-31.37ZM283.87,465.58c-12.14-8.72-30.34-5.74-39.43,6.92-6.49,9.04-7.05,22.35,5.35,31.25,13.95,10.02,31.97,4.56,40.13-6.8,7.42-10.33,5.06-23.39-6.05-31.37ZM282.82,114.63c-4.34-3.12-10.85-2.05-14.1,2.47-2.32,3.23-2.52,7.99,1.91,11.18,4.99,3.58,11.43,1.63,14.35-2.43,2.65-3.7,1.81-8.37-2.16-11.22ZM282.82,114.63c-4.34-3.12-10.85-2.05-14.1,2.47-2.32,3.23-2.52,7.99,1.91,11.18,4.99,3.58,11.43,1.63,14.35-2.43,2.65-3.7,1.81-8.37-2.16-11.22ZM583.75,137.62c-9.33-6.7-23.32-4.41-30.31,5.32-4.99,6.95-5.42,17.18,4.11,24.02,10.72,7.7,24.57,3.51,30.85-5.23,5.71-7.94,3.89-17.98-4.65-24.11ZM583.75,137.62c-9.33-6.7-23.32-4.41-30.31,5.32-4.99,6.95-5.42,17.18,4.11,24.02,10.72,7.7,24.57,3.51,30.85-5.23,5.71-7.94,3.89-17.98-4.65-24.11ZM145.77,212.83c-5.25-3.77-13.12-2.48-17.05,2.99-2.81,3.91-3.05,9.66,2.31,13.51,6.03,4.33,13.82,1.97,17.35-2.94,3.21-4.47,2.19-10.11-2.62-13.56ZM145.77,212.83c-5.25-3.77-13.12-2.48-17.05,2.99-2.81,3.91-3.05,9.66,2.31,13.51,6.03,4.33,13.82,1.97,17.35-2.94,3.21-4.47,2.19-10.11-2.62-13.56ZM508.11,248.41c-3.82-2.74-9.55-1.81-12.41,2.18-2.04,2.85-2.22,7.03,1.68,9.84,4.39,3.15,10.06,1.44,12.63-2.14,2.34-3.25,1.59-7.36-1.9-9.87ZM508.11,248.41c-3.82-2.74-9.55-1.81-12.41,2.18-2.04,2.85-2.22,7.03,1.68,9.84,4.39,3.15,10.06,1.44,12.63-2.14,2.34-3.25,1.59-7.36-1.9-9.87ZM340.06,234.37c7,7.78,19.9,8.46,28.02,1.16,5.8-5.22,8.16-14.24,1.01-22.19-8.05-8.94-21.2-7.9-28.48-1.34-6.62,5.96-6.95,15.25-.55,22.37ZM340.06,234.37c7,7.78,19.9,8.46,28.02,1.16,5.8-5.22,8.16-14.24,1.01-22.19-8.05-8.94-21.2-7.9-28.48-1.34-6.62,5.96-6.95,15.25-.55,22.37ZM238.89,326.06c4.95,5.49,14.05,5.97,19.78.82,4.09-3.68,5.76-10.05.71-15.67-5.68-6.31-14.97-5.58-20.11-.95-4.68,4.21-4.91,10.77-.39,15.8ZM238.89,326.06c4.95,5.49,14.05,5.97,19.78.82,4.09-3.68,5.76-10.05.71-15.67-5.68-6.31-14.97-5.58-20.11-.95-4.68,4.21-4.91,10.77-.39,15.8ZM549.02,704.59c-9.09-6.53-22.71-4.3-29.52,5.18-4.86,6.77-5.28,16.73,4,23.4,10.44,7.5,23.93,3.41,30.05-5.09,5.56-7.74,3.78-17.51-4.53-23.49ZM549.02,704.59c-9.09-6.53-22.71-4.3-29.52,5.18-4.86,6.77-5.28,16.73,4,23.4,10.44,7.5,23.93,3.41,30.05-5.09,5.56-7.74,3.78-17.51-4.53-23.49ZM253.88,738.67c-13.85-9.95-34.61-6.55-44.98,7.89-7.41,10.31-8.04,25.49,6.1,35.66,15.91,11.43,36.47,5.2,45.78-7.76,8.47-11.79,5.77-26.68-6.9-35.79ZM253.88,738.67c-13.85-9.95-34.61-6.55-44.98,7.89-7.41,10.31-8.04,25.49,6.1,35.66,15.91,11.43,36.47,5.2,45.78-7.76,8.47-11.79,5.77-26.68-6.9-35.79ZM326.27,640.22c-5.67-4.07-14.17-2.68-18.42,3.23-3.03,4.22-3.29,10.44,2.5,14.6,6.52,4.68,14.93,2.13,18.75-3.18,3.47-4.83,2.36-10.93-2.83-14.65ZM326.27,640.22c-5.67-4.07-14.17-2.68-18.42,3.23-3.03,4.22-3.29,10.44,2.5,14.6,6.52,4.68,14.93,2.13,18.75-3.18,3.47-4.83,2.36-10.93-2.83-14.65ZM457.45,540.75c-8.91-6.4-22.27-4.21-28.94,5.08-4.77,6.64-5.17,16.4,3.93,22.94,10.24,7.36,23.47,3.35,29.46-4.99,5.45-7.58,3.71-17.17-4.44-23.03ZM457.45,540.75c-8.91-6.4-22.27-4.21-28.94,5.08-4.77,6.64-5.17,16.4,3.93,22.94,10.24,7.36,23.47,3.35,29.46-4.99,5.45-7.58,3.71-17.17-4.44-23.03ZM478.59,404.88c9.09-12.65,6.14-28.46-7.31-38.13-14.66-10.53-36.74-6.91-47.7,8.35-7.93,11.04-8.64,27.28,6.42,38.1,16.87,12.12,38.78,5.34,48.59-8.32Z"/>
    </g>
  </g>
</svg>
