<svg xmlns="http://www.w3.org/2000/svg" viewBox="0 0 302 379" fill="#cc0000">
  <!-- Bread slice outline -->
  <path d="M251,379H51c-28.2,0-51-22.8-51-51V120C0,53.7,53.7,0,120,0h22c11,0,21.5,1.8,31.4,5.2
    C189.8,1.8,207,0,220,0c45.3,0,82,36.7,82,82v246C302,356.2,279.2,379,251,379z"
    fill="none" stroke="#cc0000" stroke-width="38" stroke-linejoin="round"/>
  <!-- Inner dots -->
  <circle cx="105" cy="95" r="7"/>
  <circle cx="85" cy="125" r="5"/>
  <circle cx="155" cy="80" r="8"/>
  <circle cx="225" cy="75" r="6"/>
  <circle cx="200" cy="130" r="5"/>
  <circle cx="195" cy="195" r="12"/>
  <circle cx="100" cy="215" r="8"/>
  <circle cx="120" cy="245" r="6"/>
  <circle cx="185" cy="265" r="8"/>
  <circle cx="225" cy="310" r="7"/>
  <circle cx="80" cy="310" r="10"/>
  <circle cx="135" cy="330" r="6"/>
  <circle cx="160" cy="170" r="5"/>
</svg>
